<svg xmlns="http://www.w3.org/2000/svg" width="932.363" height="761.669" viewBox="0 0 932.363 761.669"><defs><style>.a,.c{fill:#6c63ff;}.a,.g,.k{opacity:0.1;}.b{fill:#3f3d56;}.d{fill:#35323e;}.e{fill:#504f60;}.f{fill:#a1616a;}.h{fill:#464353;}.i{opacity:0.04;}.j{fill:#fff;}.l{fill:#fbbebe;}.m{opacity:0.05;}.n{fill:#f86d70;}.o{opacity:0.07;}</style></defs><g transform="translate(-0.001 -0.022)"><path class="a" d="M1018.238,490.069V491.8q-.152,14.969-1.774,29.862a1.057,1.057,0,0,1,0,.18c-.085.825-.18,1.641-.275,2.466-.161,1.394-.332,2.779-.522,4.174a300.215,300.215,0,0,1-10.937,50.076h0a270.042,270.042,0,0,1-28.552,62.873q-5.616,9.011-11.962,17.444h0c-2.258,2.979-4.563,5.891-6.944,8.755q-2.5,3.007-5.1,5.919l-1.081,1.2a281.429,281.429,0,0,1-29.406,27.945c-17.075,14.153-35.458,26.466-54.136,37.887-1.062.655-2.134,1.3-3.206,1.9a1.566,1.566,0,0,1-.237.142c-25.384,15.348-51.708,29.2-78.828,40.287-29.691,12.17-60.349,21.021-91.8,24.891-43.844,5.388-88.219,1.005-131.8-6.526a856.473,856.473,0,0,1-107.191-25.612l-5.787-1.812q-4.5-1.432-8.983-2.922-27.1-8.964-53.6-19.92a704.5,704.5,0,0,1-126.475-67.909q-7.589-5.1-14.959-10.434-10.3-7.418-20.357-15.272l-4.136-3.206a425.2,425.2,0,0,1-49.156-45.143c-20.414-22.216-37.858-47.278-49.327-75.887q-2.713-6.744-4.971-13.745l-.142-.465c-.759-2.372-1.461-4.743-2.106-7.209q-1.423-5.293-2.495-10.719c-.152-.692-.285-1.385-.408-2.087a179.484,179.484,0,0,1-2.988-36.929,170.751,170.751,0,0,1,3.794-32.252h0a145.5,145.5,0,0,1,10.748-31.844h0a114.78,114.78,0,0,1,16.439-25.356h0a96.974,96.974,0,0,1,15.491-14.476c10.292-7.665,21.7-13.005,33.533-17.226h0c5.559-1.992,11.193-3.737,16.857-5.359,4.013-1.157,8.044-2.258,12.057-3.339l11.838-3.2c7.589-2.068,15.177-4.193,22.652-6.488,20.376-6.223,40.344-13.755,58.813-24.986,2.922-1.774,5.9-3.718,8.879-5.805q5.692-3.956,11.231-8.594h0c3.737-3.13,7.4-6.479,10.89-10.027.541-.55,1.072-1.1,1.6-1.66,2.846-3,5.606-6.137,8.167-9.4,1.252-1.594,2.466-3.216,3.624-4.866,1.6-2.286,3.121-4.61,4.525-7h0c7.039-11.952,11.383-25.138,10.871-39.034a60.063,60.063,0,0,0-.617-6.839c-1.233-8.376-2.419-16.553-3.292-24.549-3.661-33.077-2.115-63.072,22.709-91.254C420.275,53.4,468.72,46.262,512.82,49.06c127.5,8.063,243.569,80.858,345.571,167.521q13.233,11.231,26.143,22.766,3.254,2.9,6.517,5.843c16.126,14.523,32.005,29.586,46.794,45.722,1.2,1.309,2.39,2.618,3.567,3.937.721.816,1.451,1.622,2.163,2.447q6.915,7.826,13.423,16.031a303.707,303.707,0,0,1,30.658,46.481,263.873,263.873,0,0,1,26.921,82.214h0a292.96,292.96,0,0,1,3.254,31.465c.161,3.1.266,6.213.323,9.315v2.979C1018.247,487.223,1018.247,488.627,1018.238,490.069Z" transform="translate(-108.55 -48.49)"/><path class="b" d="M393.157,448.534,377.98,718.683l15.177.2L405.489,444.74Z" transform="translate(-19.432 -22.863)"/><rect class="c" width="187.821" height="40.789" transform="translate(129.938 562.543)"/><path class="b" d="M444.912,679.51v25.612H250.9Q240.6,697.7,230.54,689.85V679.51Z" transform="translate(-114.822 -80.93)"/><path class="d" d="M480.767,612.128c-.531,2.457-1.224,4.885-1.954,7.3-2.153,6.991-4.743,13.887-5.246,21.153-.674,9.6,1.9,20.765-4.743,27.737-1.708,1.8-3.937,3.149-5.464,5.075a8.811,8.811,0,0,0-.645.949c-1.366,2.258-1.527,5.008-1.546,7.589a132.787,132.787,0,0,0,1.072,16.458c2.248,18.782,6.687,37.6.854,55.331a85.228,85.228,0,0,1-3.69,9.021c-2.846,6.26-5.948,12.436-6.877,19.219-.683,5.028-.474,10.207-.512,15.32q-4.5-1.432-8.983-2.922-27.1-8.964-53.6-19.92c.047-.256.095-.522.133-.778,1.356-8.443-.5-17.075-2.76-25.308-4.743-17.445-11.459-34.718-15.434-52.286a132.305,132.305,0,0,1-3.14-20.869c-.114-1.575-.18-3.159-.19-4.743-.047-2.068,0-4.136.085-6.223.2-4.164.379-9.106-2.95-11.639-1.831-1.375-4.25-1.613-6.384-2.448-4.117-1.6-6.934-5.322-10.2-8.3a13.365,13.365,0,0,0-11.943-3.51c-21.324,4.885-36.995,22.974-56.839,32.119-.768.361-1.537.7-2.315,1.024a33.722,33.722,0,0,0-7.276,3.719,8.29,8.29,0,0,0-3.263,4.6c-.5,2.011-.066,4.117.18,6.185a31.577,31.577,0,0,1-.427,10.083,30.782,30.782,0,0,1-1.015,3.794c-.759,2.248-1.774,4.449-2.741,6.64q-7.589-5.1-14.959-10.435-10.3-7.418-20.357-15.272l-4.069-3.273A425.22,425.22,0,0,1,174.42,632.38c2.02-5.691,4.942-10.985,6.346-16.818.8-3.349,1.091-6.83,2.191-10.083a36.245,36.245,0,0,1,5.236-9.391,127.113,127.113,0,0,1,29.16-29.179c11.753-8.423,25.327-15.177,35.9-24.739a56.661,56.661,0,0,0,10.975-13.005,8.126,8.126,0,0,0,.5-.949,19.68,19.68,0,0,0,1.7-5.426c.759-4.25.645-8.917,1.025-13a138.623,138.623,0,0,0,39.015,1.176c15.13-1.7,29.928-5.9,45.058-7.532,1.138-.133,2.286-.237,3.434-.332,4.847-.389,9.7-.474,14.57-.417,4.069,0,8.139.18,12.208.313l44.8,1.518c4.961.171,10.027.36,14.646,2.172,5.483,2.153,9.875,6.441,13.394,11.155.446.607.892,1.214,1.309,1.84a57.865,57.865,0,0,1,6.906,13.65c.18.493.351.949.512,1.49.427,1.318.8,2.646,1.129,3.993.256,1.053.484,2.106.692,3.168,1.043,5.255,1.66,10.624,3.311,15.7.114.37.237.74.37,1.1,1.982,5.559,5.274,10.539,7.759,15.879a58.981,58.981,0,0,1,4.079,12.076A59.673,59.673,0,0,1,480.767,612.128Z" transform="translate(-111.936 -71.839)"/><path class="c" d="M347.2,260.105c-4-3.187-9.808-.854-14.494,1.2a93.006,93.006,0,0,1-12.1,4.373,5.112,5.112,0,0,1-2.656.275c-1.9-.455-2.694-2.7-4.107-4.069-2.457-2.362-6.479-1.8-9.647-.522s-6.3,3.13-9.695,2.846c-3.624-.284-6.773-2.96-10.434-3.045-6.45-.152-11.867,7.8-17.966,5.691-3.718-1.281-6.64-6.118-10.3-4.743-2.846,1.082-3.1,5.018-4.819,7.589-2.021,3-5.957,3.842-9.325,5.17a26.788,26.788,0,0,0-16.259,27.348c.768,6.251,3.794,11.981,5.8,17.947,5.938,17.35,3.9,36.919,11.383,53.652.949-.892,1.48-1.224,2.4-2.106a21.95,21.95,0,0,0-1.281,15.746c.787,2.628,2.068,5.075,3.035,7.646a68.537,68.537,0,0,1,2.428,8.822l8.253,36.407c3.225,14.229,6.46,28.458,7.02,43.028a125.581,125.581,0,0,1-2.163,28.268c14.95-2.476,28.628-9.106,43.777-9.021,5.559,0,11.07.949,16.581,1.707a341.341,341.341,0,0,0,48.5,3.292,19.258,19.258,0,0,0,7.437-1.043c2.087-.892,3.794-2.476,5.767-3.624,3.861-2.277,8.537-2.846,12.986-2.846,20.29-.37,39.841,7.057,60,9.676,7.959-16.7,8.433-36.72,2.324-54.183-1.812-5.189-4.25-10.245-4.971-15.7a79.4,79.4,0,0,1-.227-10.083,73.147,73.147,0,0,0-4.582-25.214c-1.176-3.159-2.59-6.375-2.466-9.742s1.783-6.507,3.415-9.486c3.311-6.071,6.64-12.2,11.317-17.321,4.791-5.293,10.786-9.325,16.714-13.28l14.637-9.827c-2-12.645-4.582-25.963-9.941-37.593s-13.375-22.32-24.218-29.122a80.025,80.025,0,0,0-11.44-5.692c-5.54-2.333-11.307-4.392-17.312-4.743-6.83-.389-13.555,1.442-20.3,2.58C389.032,273.945,364.046,273.509,347.2,260.105Z" transform="translate(-114.548 -59.288)"/><path class="b" d="M501.413,491.28l-6.963,8.793-13.129,16.572L466.145,535.8l-4.24,5.35h-8.224l-203.653.237-127.538.142H116.8c-.759-2.371-1.461-4.743-2.106-7.209q-1.423-5.293-2.495-10.719c-.152-.692-.285-1.385-.408-2.087l46.272-30.251,17.4-.095h0l53.216-.3h0l29.719-.171h8.831l19.807-.1h0l150.958-.863h0l7.721-.047h3.349l8.869-.047,33-.19,6.337-2.409.465.493Z" transform="translate(-108.717 -71.035)"/><path class="e" d="M498.4,484.3l-.787.949-5.179,6.1-10.662,12.588L459.414,530.3l-198.065-5.056-149.355-3.794c-.152-.693-.285-1.385-.408-2.087a179.485,179.485,0,0,1-2.988-36.929l16.562-8.48L128.954,472l29.53-15.177L184.4,443.54l67.6,8.784,14.969,1.944,6.773.873,9.913,1.29.835.114L439.93,476.7l17.179,2.229,10.084,1.309,31.076,4.041Z" transform="translate(-108.55 -68.799)"/><path class="b" d="M484.093,534.51l-.161,3.728-.949,21.049-5.1,115.728L476.8,700.029l-2.846,64.352-1.6,36.35-5.786-1.812q-4.5-1.432-8.983-2.922l13.878-252.325.294-5.293,6.109-1.9Z" transform="translate(-126.494 -73.476)"/><path class="b" d="M123.082,534.22l-.427,9.742-.626,14.229q-2.713-6.745-4.971-13.745l-.142-.465c-.759-2.371-1.461-4.743-2.106-7.209Z" transform="translate(-108.872 -73.461)"/><ellipse class="f" cx="43.635" cy="58.813" rx="43.635" ry="58.813" transform="translate(218.631 199.708)"/><ellipse class="g" cx="43.635" cy="58.813" rx="43.635" ry="58.813" transform="translate(218.631 199.708)"/><circle class="f" cx="60.71" cy="60.71" r="60.71" transform="translate(207.722 162.238)"/><path class="h" d="M389.163,184.807a77.722,77.722,0,0,0-11.013,1.679c-9.6,2.334-17.9,7.513-25.982,12.6-3.624,2.286-7.352,4.667-9.6,8.025-4.041,6.024-2.476,13.688-4.743,20.376-1.176,3.434-3.339,6.517-5.17,9.714-5.037,8.765-7.674,18.393-10.264,27.927-.531,1.973-.683,4.648,1.47,5.407a5.928,5.928,0,0,0,3.681-.417c6.8-2.248,15.443-2.893,20.49,1.669s4.62,12.654,10.624,16.126c6.877,4.013,17.615-.835,23.857,3.9,2.675,2.03,3.643,5.284,5.834,7.731,5.1,5.692,14.921,5.416,23.089,4.269,4.686-.664,10.435-1.11,13.28,2.182,1.366,1.556,1.755,3.69,3.339,5.094,2.846,2.542,8.053,1.252,10.833-1.356s4.107-6.137,6.422-9.069c4.506-5.691,12.427-8.793,17.075-14.419,3.889-4.743,5.065-10.681,6.128-16.411l3.956-21.239c1.6-8.613,3.064-18.023-1.783-25.612-1.726-2.732-4.2-5.084-5.692-7.911-1-1.9-1.556-3.9-2.713-5.692a23.631,23.631,0,0,0-4.866-4.914l-9.363-7.75a78.739,78.739,0,0,0-10.235-7.589C424.451,181.335,404.435,183.384,389.163,184.807Z" transform="translate(-119.526 -55.428)"/><path class="f" d="M178.432,349.124c-2.248,2.391-4.326,4.97-6.735,7.209a81.583,81.583,0,0,1-6.64,5.312q-5.578,4.174-10.909,8.642a61.1,61.1,0,0,0-10,9.988c-5.065,6.8-7.465,15.263-12.208,22.292-4.193,6.232-10.1,11.155-14.362,17.34a26.826,26.826,0,0,0-4.1,8.6,39.974,39.974,0,0,0-.844,9.1c-.085,5.009-.161,10.074.863,14.978s3.273,9.723,7.124,12.939c3.576,2.988,8.2,4.364,12.721,5.5,2.334.579,4.857,1.119,7.077.2a11.666,11.666,0,0,0,4.117-3.472l11.544-13.28c7.722-8.917,15.747-18.023,26.342-23.24,3.32-1.622,6.82-2.846,10.15-4.42,14.115-6.8,24.094-20.727,27.964-35.9.949-3.709,1.556-7.494,2.172-11.279l1.669-10.377a3.31,3.31,0,0,0,0-1.584,3.416,3.416,0,0,0-1.214-1.442,201.187,201.187,0,0,1-22.52-21.248c-1.651-1.821-3.2-4.316-5.1-5.843-2.39-1.9-2.21-1.755-5.085,0A60.975,60.975,0,0,0,178.432,349.124Z" transform="translate(-108.758 -63.361)"/><path class="b" d="M265.025,422.482a1.783,1.783,0,1,0-3.206,1.556l-.949.465,28.287,57.978,5.113-2.495L265.983,421.97Z" transform="translate(-116.381 -67.661)"/><path class="i" d="M178.432,349.124c-2.248,2.391-4.326,4.97-6.735,7.209a81.583,81.583,0,0,1-6.64,5.312q-5.578,4.174-10.909,8.642a61.1,61.1,0,0,0-10,9.988c-5.065,6.8-7.465,15.263-12.208,22.292-4.193,6.232-10.1,11.155-14.362,17.34a26.826,26.826,0,0,0-4.1,8.6,39.974,39.974,0,0,0-.844,9.1c-.085,5.009-.161,10.074.863,14.978s3.273,9.723,7.124,12.939c3.576,2.988,8.2,4.364,12.721,5.5,2.334.579,4.857,1.119,7.077.2a11.666,11.666,0,0,0,4.117-3.472l11.544-13.28c7.722-8.917,15.747-18.023,26.342-23.24,3.32-1.622,6.82-2.846,10.15-4.42,14.115-6.8,24.094-20.727,27.964-35.9.949-3.709,1.556-7.494,2.172-11.279l1.669-10.377a3.31,3.31,0,0,0,0-1.584,3.416,3.416,0,0,0-1.214-1.442,201.187,201.187,0,0,1-22.52-21.248c-1.651-1.821-3.2-4.316-5.1-5.843-2.39-1.9-2.21-1.755-5.085,0A60.975,60.975,0,0,0,178.432,349.124Z" transform="translate(-108.758 -63.361)"/><path class="f" d="M522.922,457.7c-.095,6.052-.332,12.284-2.846,17.805-1.081,2.39-2.76,4.743-5.274,5.53a12.271,12.271,0,0,1-4.639.171,167.588,167.588,0,0,0-55.483,4.4c4.838-9.676,2.058-21.277,3.4-32.015.37-2.931,1.043-5.815,1.3-8.755.949-10.435-3.519-20.565-5.568-30.867a69.061,69.061,0,0,1,0-27.016,18.023,18.023,0,0,1,2.324-6.5,15.253,15.253,0,0,1,5.331-4.639c7.684-4.373,16.743-4.876,25.375-4.3,5.815.389,17.473-.161,22.32,3.415,5.3,3.918,6.982,17.075,8.414,23.155a195.883,195.883,0,0,1,4.364,28.334A304.488,304.488,0,0,1,522.922,457.7Z" transform="translate(-126.231 -65.086)"/><path class="j" d="M59.98,436.03,94.129,458.8,247.8,453.1,146.3,436.03Z" transform="translate(-3.084 -22.416)"/><path class="c" d="M213.86,293.32c-5.606,4.942-10.359,10.767-15.671,16.031-7.285,7.228-15.566,13.375-23.81,19.494a17.72,17.72,0,0,1,12.332,12.427c.361,1.394.541,2.846.949,4.212a23.01,23.01,0,0,0,5.274,8.537c9.619,10.843,23.079,18.868,28.752,32.252a2.979,2.979,0,0,0,1.138,1.613,2.5,2.5,0,0,0,1.47.171c5.132-.541,9.059-4.677,12.332-8.7,6.83-8.537,12.758-17.966,16.126-28.382s3.908-21.931.237-32.252c-1.831-5.141-4.658-9.865-7.465-14.542q-3.69-6.137-7.361-12.256c-1.281-2.153-2.912-6.526-5.426-7.589C227.311,282,217.342,289.839,213.86,293.32Z" transform="translate(-111.934 -60.592)"/><path class="c" d="M507.1,357.419l8.073,18.972a58.651,58.651,0,0,0-53.026,7.352c-4.6,3.292-8.822,7.427-10.9,12.683a5.54,5.54,0,0,1-5.492-2.153,11.015,11.015,0,0,1-2.03-5.805c-.749-7.285,2.011-14.428,4.743-21.239,1.271-3.187,2.58-6.441,4.838-9.031s5.255-4.3,8.253-5.91a183.781,183.781,0,0,1,29.928-13.223c4.364-1.413,8.936-1.385,11.383,2.694C505.7,346.624,504.879,352.24,507.1,357.419Z" transform="translate(-125.775 -63.384)"/><path class="f" d="M166.262,418.119c2.021,1.612,3.794,3.519,5.872,5.056a41.958,41.958,0,0,0,6.982,3.918l9.353,4.5a52.4,52.4,0,0,0,9.059,3.681c4,1.072,8.205,1.176,12.227,2.172,5.075,1.252,9.714,3.861,14.713,5.369s10.852,1.755,15.026-1.385c2.609-1.964,4.582-5.208,7.816-5.691,2.087-.275,4.1.73,5.957,1.707l24.341,12.8c3.282,1.727,6.754,3.643,8.471,6.934s.56,8.291-3.054,9.144a33.373,33.373,0,0,1-3.794.218c-1.252.152-2.618.892-2.789,2.153a4.325,4.325,0,0,0,.6,2.229,9.326,9.326,0,0,1,.142,7.93c-1.271,2.428-4.392,3.937-6.887,2.846.427,3.671-3.567,6.242-7.124,7.219-8.974,2.457-18.488.949-27.661-.607-3.6-.607-7.266-1.233-10.548-2.846-1.575-.768-3.036-1.755-4.629-2.466-4.373-1.945-9.344-1.688-14.125-1.6-22.112.389-44.033-3.709-65.775-7.788-4.031-.759-8.177-1.565-11.62-3.794-6.64-4.326-9.106-13.2-8.016-21.059s5.075-14.969,8.993-21.875l5.075-8.945a11.516,11.516,0,0,1,2.732-3.6C145.061,408.623,159.869,412.977,166.262,418.119Z" transform="translate(-109.167 -67.158)"/><path class="i" d="M166.262,418.119c2.021,1.612,3.794,3.519,5.872,5.056a41.958,41.958,0,0,0,6.982,3.918l9.353,4.5a52.4,52.4,0,0,0,9.059,3.681c4,1.072,8.205,1.176,12.227,2.172,5.075,1.252,9.714,3.861,14.713,5.369s10.852,1.755,15.026-1.385c2.609-1.964,4.582-5.208,7.816-5.691,2.087-.275,4.1.73,5.957,1.707l24.341,12.8c3.282,1.727,6.754,3.643,8.471,6.934s.56,8.291-3.054,9.144a33.373,33.373,0,0,1-3.794.218c-1.252.152-2.618.892-2.789,2.153a4.325,4.325,0,0,0,.6,2.229,9.326,9.326,0,0,1,.142,7.93c-1.271,2.428-4.392,3.937-6.887,2.846.427,3.671-3.567,6.242-7.124,7.219-8.974,2.457-18.488.949-27.661-.607-3.6-.607-7.266-1.233-10.548-2.846-1.575-.768-3.036-1.755-4.629-2.466-4.373-1.945-9.344-1.688-14.125-1.6-22.112.389-44.033-3.709-65.775-7.788-4.031-.759-8.177-1.565-11.62-3.794-6.64-4.326-9.106-13.2-8.016-21.059s5.075-14.969,8.993-21.875l5.075-8.945a11.516,11.516,0,0,1,2.732-3.6C145.061,408.623,159.869,412.977,166.262,418.119Z" transform="translate(-109.167 -67.158)"/><path class="f" d="M463.606,435.573c-4.942,2.333-10.615,2.561-15.775,4.354s-9.543,5.018-14.276,7.646c-12.332,6.887-26.56,9.486-40.533,11.962-8.471,1.518-17.075,3.035-25.612,2.675-11.554-.493-22.652-4.345-33.846-7.247s-23.136-4.857-34.225-1.594A38.522,38.522,0,0,0,274.2,477.491c-2.324,6.82-2.647,14.172-2.2,21.362,2.333,1.717,5.6-.664,6.868-3.273s1.964-5.805,4.43-7.323c4.278,1.451,5.322,7.152,8.85,9.97,2.2,1.764,5.141,2.229,7.94,2.628l14.419,2.049c3.472.493,7.5.825,10.017-1.622,1.224-1.186,1.9-2.846,3.016-4.117,2.3-2.542,6.128-2.979,9.543-2.637,10.662,1.062,20.66,7.978,31.247,6.337,3.643-.56,7.029-2.115,10.5-3.339,20.575-7.266,43.436-2.846,64.846-7.01,8.167-1.584,16.031-4.392,23.8-7.351,4.221-1.6,8.49-3.282,12.094-6a25.46,25.46,0,0,0,9.827-22.586,25.82,25.82,0,0,0-9.116-16.733c-1.67-1.423-3.861-4.145-5.862-5.037C470.6,431.134,466.85,434.046,463.606,435.573Z" transform="translate(-116.944 -68.221)"/><g class="k" transform="translate(204.426 144.063)"><path d="M438.573,302.466c-1.584-1.4-1.973-3.538-3.339-5.094-2.846-3.292-8.594-2.846-13.28-2.182-8.167,1.148-18.023,1.414-23.089-4.269-2.191-2.447-3.159-5.691-5.834-7.731-6.242-4.743-16.98.114-23.857-3.9-6-3.5-5.616-11.62-10.624-16.126s-13.688-3.918-20.49-1.669a5.929,5.929,0,0,1-3.681.417c-2.153-.759-2-3.434-1.47-5.407,2.59-9.533,5.227-19.162,10.264-27.927,1.831-3.2,3.994-6.28,5.17-9.714,2.058-6.014,1.005-12.815,3.709-18.507-2.9,1.9-5.692,3.965-7.485,6.64-4.041,6.024-2.476,13.688-4.743,20.376-1.176,3.434-3.339,6.517-5.17,9.714-5.037,8.765-7.674,18.393-10.264,27.926-.531,1.973-.683,4.648,1.47,5.407a5.929,5.929,0,0,0,3.681-.417c6.8-2.248,15.443-2.893,20.49,1.669s4.62,12.654,10.624,16.126c6.877,4.013,17.615-.835,23.857,3.9,2.675,2.03,3.642,5.284,5.834,7.731,5.1,5.692,14.921,5.416,23.089,4.269,4.686-.664,10.435-1.11,13.28,2.182,1.366,1.556,1.755,3.69,3.339,5.094,2.846,2.542,8.053,1.252,10.833-1.356a28.758,28.758,0,0,0,4.534-6.2C442.956,304.164,440.328,304.05,438.573,302.466Z" transform="translate(-324.055 -200.36)"/><path d="M462.908,296.533a26.972,26.972,0,0,0-1.7,2.457c3.642-2.6,7.5-5.028,10.226-8.338a20.131,20.131,0,0,0,1.9-2.732C469.548,290.633,465.6,293.128,462.908,296.533Z" transform="translate(-331.107 -204.862)"/></g><path class="b" d="M556.48,446.53l2.846,272.245,13.281-1.9L569.76,446.53Z" transform="translate(-28.609 -22.955)"/><path class="b" d="M640.48,498.53l2.846,272.245,13.28-1.9L653.76,498.53Z" transform="translate(-32.928 -25.629)"/><path class="b" d="M1009.76,684.545h0l-.057-5.227v-3.112l-.5-47.885-.788-74.863-.133-6.46H995l.066,6.223.417,40.1.18,17.359h0l.152,14.058.246,24.3.152,14.333h0v1.518l.2,18.839.171,16.61,1.082-1.2q2.609-2.912,5.1-5.919Z" transform="translate(-154.123 -74.118)"/><path class="c" d="M624.569,545.03l-7.589,11.345,7.589,51.689,64.5,17.653H793.418l62.607,3.785,29.824-20.414-5.16-35.06-22.766-29Z" transform="translate(-31.719 -28.019)"/><path class="b" d="M725.282,605.48l-3.794,31.512s-19.92,61.781,140.391,58,132.8-16.392,132.8-16.392l-.948-36.559s5.587,17.3-75.887,14.959-157.466-9.913-157.466-9.913S731.922,652.122,725.282,605.48Z" transform="translate(-140.021 -77.124)"/><path class="l" d="M864.249,307.492c-9.144,4.164-16.069,12.237-20.708,21.163s-7.247,18.725-9.818,28.458c-2.713,10.264-5.435,20.556-6.839,31.076-2.5,18.706-.626,38.37,7.968,55.17s24.473,30.355,43.066,33.59c7.181,1.262,14.561,1.005,21.818.256a177.388,177.388,0,0,0,38.522-8.49c13.043-4.411,26.617-11.2,32.423-23.715,3.368-7.257,3.652-15.528,3.491-23.516a250.167,250.167,0,0,0-9.78-64.3c-1.755-6.071-3.794-12.189-7.513-17.3s-8.8-8.86-13.992-12.332C920.7,312.6,891.54,295.084,864.249,307.492Z" transform="translate(-145.427 -61.588)"/><path class="m" d="M864.249,307.492c-9.144,4.164-16.069,12.237-20.708,21.163s-7.247,18.725-9.818,28.458c-2.713,10.264-5.435,20.556-6.839,31.076-2.5,18.706-.626,38.37,7.968,55.17s24.473,30.355,43.066,33.59c7.181,1.262,14.561,1.005,21.818.256a177.388,177.388,0,0,0,38.522-8.49c13.043-4.411,26.617-11.2,32.423-23.715,3.368-7.257,3.652-15.528,3.491-23.516a250.167,250.167,0,0,0-9.78-64.3c-1.755-6.071-3.794-12.189-7.513-17.3s-8.8-8.86-13.992-12.332C920.7,312.6,891.54,295.084,864.249,307.492Z" transform="translate(-145.427 -61.588)"/><path class="c" d="M850.974,429.162a43.047,43.047,0,0,0,9.486,9.486c9.031,6.242,20.622,7.086,31.588,7.427,8.8.266,18.9-.237,24.417-7.1,2.486-3.092,3.6-7.039,4.61-10.88a482.611,482.611,0,0,0,13.186-71.875l25.118.085c10.871,46.547,9.979,94.935,9.031,142.734l-1.375,69.7-16.183-1.717c-38.427-4.07-76.912-8.139-115.548-8.841a661.01,661.01,0,0,0-67.843,2.239L802.7,455.637c4.572-13.622,9.192-27.424,10.264-41.738,1.546-20.765-4.278-42.686,3.794-61.9a7.529,7.529,0,0,1,2.931-3.956c1.47-.806,3.33-.607,5.018-.389,3.187.427,12.929,0,15.244,2.04,3.415,2.959,1.157,3.405-.047,8.177-2.153,8.537-4.193,16.439-4.164,25.337C835.768,399.367,840.776,416.423,850.974,429.162Z" transform="translate(-142.425 -63.86)"/><path class="h" d="M1007.179,672.194h0q6.346-8.424,11.962-17.444c-1.9-4.06-3.984-8.025-5.644-12.171-2.542-6.355-4-13.091-5.445-19.778q-.74-3.414-1.47-6.83c-5.312-24.768-10.3-49.886-11.336-75q-.143-3.13-.18-6.261v-7.8c.114-5.691.474-11.43,1.129-17.141.123-1.119.265-2.239.417-3.358a4.851,4.851,0,0,1,.094-.73l64.5-2.352h0l5.426-.2c3.728-.133,7.674-.341,10.748-2.457,5.169-3.548,5.777-10.824,5.691-17.075a253.456,253.456,0,0,0-5.35-47c-2.448-11.63-5.938-23.516-13.774-32.451-6.431-7.342-15.747-12.683-19.095-21.818-1.243-3.4-1.556-7.124-3.168-10.368s-4.278-5.625-6.792-8.129a113.189,113.189,0,0,1-21.722-30.089c-3.842-7.74-8.006-16.278-13.024-21.628-.247-.275-.493-.531-.749-.778-4.269-4.221-9.154-6.071-14.94-3.2a19.149,19.149,0,0,0-2.959,1.84h0a36.016,36.016,0,0,0-5.625,5.35,128.046,128.046,0,0,0-15.3,21.817,121.245,121.245,0,0,0-7.817,17.075,117.709,117.709,0,0,0-4.221,14.229c-.816,3.576-1.461,7.19-1.973,10.814-1.9,13.622-1.9,27.509-1.632,41.3.284,12.673.844,25.375,1.992,38q.427,4.582.948,9.154,1.044,9.04,2.58,18.023c.408,2.286.825,4.572,1.29,6.849.114.607.237,1.214.36,1.812l.057.256a154.068,154.068,0,0,1,2.912,16.041q.114,1.015.171,2.021a78.16,78.16,0,0,1-.076,9.305c-.219,3.662-.56,7.314-.73,10.975a17.843,17.843,0,0,1-.066,1.9c-.047,1.85,0,3.7,0,5.549a87.957,87.957,0,0,0,1.575,13.176,85.218,85.218,0,0,0,8.205,23.183c.36.683.73,1.356,1.1,2.02,4.809,8.594,10.88,16.477,15.329,25.271a109.087,109.087,0,0,1,8.538,24.862q.948,4.259,1.8,8.537c.882,4.553,1.669,9.145,2.476,13.736.076.455.161.948.247,1.366,1.072,6.09,2.2,12.151,3.652,18.1.844,3.462,1.793,6.877,2.9,10.235Z" transform="translate(-151.542 -61.767)"/><path class="n" d="M987.668,610.672c0,.854-.057,1.708-.094,2.571a121.6,121.6,0,0,1-1.148,12.436,80.914,80.914,0,0,1-4.107,16.5,55.647,55.647,0,0,1-4.895,10.065,46.408,46.408,0,0,1-6.09,7.844c-5.691,5.919-13.887,7.807-21.818,10.3a53.729,53.729,0,0,0-10.52,4.3c-.6.332-1.186.693-1.755,1.072l-9.922,6.574c-3.092,2.039-6.251,4.155-8.376,7.181a15.433,15.433,0,0,0-.948,1.6,36.365,36.365,0,0,0-2.922,8.765c-5.16,21.495-10.33,43.009-13.868,64.827-.237,1.442-.465,2.893-.711,4.345l-.085.455a2.373,2.373,0,0,0-.152-.313c-25.384,15.348-51.708,29.2-78.827,40.286l-5.891-49.326a59.668,59.668,0,0,1-.607-12.123c.56-6.384,3.159-12.436,3.861-18.8a32.032,32.032,0,0,0-3.386-18.09c-1.119-2.163-2.523-4.288-2.779-6.707a4.173,4.173,0,0,1,3.567-4.876c1.9-2.106,2.049-4.98,1.489-7.826a22.768,22.768,0,0,0-1.328-4.335c-1.613-3.965-3.652-8.281-2.267-12.332a4.612,4.612,0,0,0,.475-2.372.4.4,0,0,0,0-.151c-.323-1.062-1.584-1.527-2.239-2.429-1.233-1.679,0-3.965.759-5.9a22.522,22.522,0,0,0,1.271-6.46c.1-1.224.18-2.457.313-3.671a36.975,36.975,0,0,1,.882-4.876,38.486,38.486,0,0,1,15.585-22.311c3.69-2.485,7.8-4.3,11.563-6.64a105.947,105.947,0,0,0,11.022-8.537q12.531-10.434,26.058-19.674a329.1,329.1,0,0,1,30.089-18.27q3.32-1.793,6.64-3.491,3.615-1.9,7.276-3.6c7.816-3.728,16.686-2.333,25.327.152,3.624,1.034,7.2,2.267,10.653,3.387a49.326,49.326,0,0,1,9.676,4.344c7.655,4.5,13.982,11.136,16.61,19.522a.989.989,0,0,1,0,.161C987.716,599.507,987.82,605.141,987.668,610.672Z" transform="translate(-144.705 -75.012)"/><path class="g" d="M987.668,610.672c0,.854-.057,1.708-.094,2.571a121.6,121.6,0,0,1-1.148,12.436,80.914,80.914,0,0,1-4.107,16.5,55.647,55.647,0,0,1-4.895,10.065,46.408,46.408,0,0,1-6.09,7.844c-5.691,5.919-13.887,7.807-21.818,10.3a53.729,53.729,0,0,0-10.52,4.3c-.6.332-1.186.693-1.755,1.072l-9.922,6.574c-3.092,2.039-6.251,4.155-8.376,7.181a15.433,15.433,0,0,0-.948,1.6,36.365,36.365,0,0,0-2.922,8.765c-5.16,21.495-10.33,43.009-13.868,64.827-.237,1.442-.465,2.893-.711,4.345l-.085.455a2.373,2.373,0,0,0-.152-.313c-25.384,15.348-51.708,29.2-78.827,40.286l-5.891-49.326a59.668,59.668,0,0,1-.607-12.123c.56-6.384,3.159-12.436,3.861-18.8a32.032,32.032,0,0,0-3.386-18.09c-1.119-2.163-2.523-4.288-2.779-6.707a4.173,4.173,0,0,1,3.567-4.876c1.9-2.106,2.049-4.98,1.489-7.826a22.768,22.768,0,0,0-1.328-4.335c-1.613-3.965-3.652-8.281-2.267-12.332a4.612,4.612,0,0,0,.475-2.372.4.4,0,0,0,0-.151c-.323-1.062-1.584-1.527-2.239-2.429-1.233-1.679,0-3.965.759-5.9a22.522,22.522,0,0,0,1.271-6.46c.1-1.224.18-2.457.313-3.671a36.975,36.975,0,0,1,.882-4.876,38.486,38.486,0,0,1,15.585-22.311c3.69-2.485,7.8-4.3,11.563-6.64a105.947,105.947,0,0,0,11.022-8.537q12.531-10.434,26.058-19.674a329.1,329.1,0,0,1,30.089-18.27q3.32-1.793,6.64-3.491,3.615-1.9,7.276-3.6c7.816-3.728,16.686-2.333,25.327.152,3.624,1.034,7.2,2.267,10.653,3.387a49.326,49.326,0,0,1,9.676,4.344c7.655,4.5,13.982,11.136,16.61,19.522a.989.989,0,0,1,0,.161C987.716,599.507,987.82,605.141,987.668,610.672Z" transform="translate(-144.705 -75.012)"/><path class="b" d="M902.025,447.482a1.783,1.783,0,1,0-3.206,1.556l-.948.465,28.287,57.978,5.113-2.495L902.983,446.97Z" transform="translate(-149.13 -68.946)"/><circle class="l" cx="60.71" cy="60.71" r="60.71" transform="translate(727.549 196.388)"/><path class="h" d="M1016.444,273.889a80.661,80.661,0,0,0-2.144-14.314c-3.567-15.339-10.084-30.44-21.305-41.453a83.265,83.265,0,0,0-2.476-7.959,1.605,1.605,0,0,0-.067-.19,89.069,89.069,0,0,0-14.324-25.394c-3.557-4.42-8.167-8.784-13.84-8.955-1.593-.057-3.282.218-4.743-.512A8.532,8.532,0,0,1,954.9,172.4a24.843,24.843,0,0,0-24.056-9l-.589.123c-.332.066-.664.142-.948.228s-.8.228-1.2.351q.655,1.081,1.281,2.191,1.689,3.007,3.13,6.147,1.195,2.618,2.21,5.321c-9.714,1.11-17.625,8.006-24.853,14.57l-17.018,15.443a.731.731,0,0,0-.085.085l-.494.474c-.123.123-.246.247-.36.379a.819.819,0,0,0-.124.133c-.142.152-.275.313-.408.474a7.178,7.178,0,0,0-.635.949,3.394,3.394,0,0,0-.247.446.952.952,0,0,0-.067.142,3.494,3.494,0,0,0-.161.4.14.14,0,0,0,0,.057,2.22,2.22,0,0,0-.067.237,2.85,2.85,0,0,0,.161,2.011l11.222.123h1.319c.057,1.5.1,3.007.161,4.506a63.9,63.9,0,0,0-5.123,4.269,55.68,55.68,0,0,0-5,5.274c-10.121,12.227-15.4,28.021-15.936,43.92v5.805c0,.949.085,1.9.161,2.846a7.107,7.107,0,0,0,.948,3.519,3.289,3.289,0,0,0,.266.341,6.548,6.548,0,0,0,2.011,1.48l.816.4h0c.408.2.8.389,1.176.607,3.576,2.021,5.691,5.919,8.945,8.424.189.142.379.285.569.408l.427.285.266.171.36.209a7.7,7.7,0,0,0,.73.389h0l.455.228h.075c.38.171.759.332,1.148.474l.541.19.161.057c.152.047.313.1.474.142q.484.142.949.256l.948.209c.371.066.75.133,1.129.18l.56.076.57.057q1.356.123,2.731.142h0a68.3,68.3,0,0,0,8.6-.6L936.25,295.1c5.492-.636,11.1-1.271,16.515-.152,4.591.949,8.822,3.13,13.28,4.677,1.006.351,2.011.673,3.026.949.369.1.749.218,1.128.313l.522.133,1.214.294c.437.1.873.209,1.309.294.616.133,1.224.247,1.84.361.418.085.844.152,1.271.228h.085l1.214.19h.294l.9.123c.437.066.873.123,1.319.171q1.452.18,2.9.313c1.565.152,3.14.266,4.743.36l1.575.095,1.575.076,4.743.209h.873a24.469,24.469,0,0,0,5.9-.3c.342-.066.674-.142,1.006-.237s.607-.19.949-.3c3.557-1.366,6.156-4.506,7.958-7.864.379-.711.73-1.423,1.052-2.153s.617-1.47.883-2.21c.332-.949.616-1.85.863-2.8.076-.256.142-.512.2-.778s.19-.787.266-1.186c.237-1.091.417-2.191.55-3.3a10.148,10.148,0,0,1,.123-1.062c.086-.949.152-1.831.189-2.76v-2.125C1016.51,275.881,1016.444,274.866,1016.444,273.889Zm-24.322-56.631c-.769-.721-1.556-1.413-2.353-2.068a9.8,9.8,0,0,1,2.343,2.068Z" transform="translate(-148.057 -54.374)"/><path class="h" d="M810.821,315.35c-7.143-.882-14.229-4.012-21.277-2.476-4.411.949-8.206,3.69-11.734,6.507a142.681,142.681,0,0,0-32.982,37.706,19.911,19.911,0,0,0-3.045,7.133c-.455,2.96.351,5.967,1.309,8.8,6.488,19.171,20.366,35.183,26.684,54.411,6.64,20.224,4.335,42.326-.56,63.043a263.463,263.463,0,0,1-29.254,72.757,41.493,41.493,0,0,1-6.735,9.22c-3.453,3.32-8.092,5.692-10.141,10.036-.948,1.9-1.224,4.06-1.9,6.09-1.9,5.692-6.488,10.567-6.934,16.572-.332,4.582,1.84,8.917,3.159,13.28a36.6,36.6,0,0,1-.674,22.861C711.931,654.48,699.352,666.47,703,680.025c8.148-2.343,17.179-5.388,21.021-12.948,1.356-2.675,2.03-5.862,4.316-7.816,4.563-3.88,12.332-.37,17.179-3.937,3.662-2.713,3.794-8.272,2.163-12.54s-4.439-8.025-5.691-12.417c-2.182-7.921,1.309-16.3.664-24.483-.3-3.794-1.47-7.427-1.556-11.2-.161-7.332,3.9-14.229,9.3-19.209s12.066-8.281,18.63-11.535l24.815-12.332c9-4.458,18.868-9.894,21.818-19.493,1.12-3.6,1.129-7.427,1.186-11.184.844-57.4,15.225-113.641,29.52-169.238,2.22-8.613,4.477-17.264,7.778-25.536s9.761-14.912,13.052-22.6C848.1,301.32,830.656,317.835,810.821,315.35Z" transform="translate(-139.078 -61.591)"/><path class="n" d="M950.009,687.813c2.191,13.28,3.529,26.845,4.573,40.344-17.075,14.153-35.458,26.466-54.136,37.887-1.062.654-2.134,1.3-3.206,1.9l-.085.455a2.341,2.341,0,0,0-.152-.313,14.275,14.275,0,0,0-7.134-7.038q-10.5-22.055-20.983-44.109c-3.794-7.94-7.589-15.956-9.486-24.521a3.727,3.727,0,0,0-.114-.55c-1.442-6.64-1.774-13.537-2.732-20.262a58.537,58.537,0,0,0-2.59-11.326c-1.138-3.272-2.7-6.45-4.088-9.647-1.708-3.946-3.14-7.94-3.206-12.2a7.971,7.971,0,0,0-.579-3.984,10.331,10.331,0,0,0-2.59-2.5,9.875,9.875,0,0,1-3.187-9.021c-5.692.294-8.9,6.413-11.184,11.6a63.254,63.254,0,0,1-8.12,14.229,26.986,26.986,0,0,1-8.993,7.485c-.313.152-.626.3-.948.436-7.921,3.491-17.169,2.258-25.754.683-7.5-1.375-15.263-3.083-21.3-7.75l-.645-.512a27.875,27.875,0,0,1-4.743-5.066c-5.056-6.906-7.295-16-8.537-24.663-.114-.816-.228-1.632-.332-2.448a91.2,91.2,0,0,1-.711-18.479c.114-1.518.275-3.036.474-4.544.133-.948.275-1.973.436-2.959a.279.279,0,0,1,0-.085c.247-1.565.512-3.14.778-4.743.948-5.378,1.9-10.9,4.743-15.528a29.392,29.392,0,0,1,6.981-7.475c1.024-.807,2.077-1.575,3.14-2.315,1.727-1.2,3.5-2.333,5.3-3.406a91.636,91.636,0,0,1,14.229-6.925c1.176-.455,2.371-.882,3.566-1.29A27.991,27.991,0,0,1,803.2,548.02a76.3,76.3,0,0,0,12.977.759c11.127-.218,22.3-2.343,33.409-3.719,15.424-1.9,32-2.125,45.447,5.691.645.37,1.271.759,1.9,1.167a56.2,56.2,0,0,1,16.306,17.236c.949,1.433,1.774,2.9,2.59,4.392a112.015,112.015,0,0,1,5.094,10.529,13.1,13.1,0,0,1,1.413,5.691,7.39,7.39,0,0,1-.151,1.12c-.256,1.347-.769,2.656-.949,4.022-.6,5.17,3.794,9.486,5.436,14.409,1.063,3.206.949,6.64,1.546,10.017.863,4.743,3.187,9.011,5.274,13.28a166.033,166.033,0,0,1,8.442,21.22c1.651,5.056,3.064,10.188,4.307,15.367q.607,2.495,1.148,5C948.415,678.792,949.26,683.288,950.009,687.813Z" transform="translate(-141.469 -73.961)"/><path class="b" d="M938.158,496.2v6.64l-1.223-.019-1.366-.019-15.254-.19-37.583-.493-10.548-.133-2.732-.038-15.832-.2-22.311-.294-47.334-.617-82.138-1.062-29.644-.38-11.9-.152-10.947-.142-6.821-.095-6.46-.085-47.894-.617-13.28-.171L572,498.1l-1.878-4.847-13.65-35.2-2.5-6.431,1.9-7.589,8.538,5.692,5.255.655,86.521,10.757,16.24,2.02,34.434,4.288,33.732,4.193,13.223,1.641,78.249,9.732,21.865,2.722,18.1,2.248,64.352,8.006Z" transform="translate(-28.48 -22.827)"/><path class="e" d="M555.98,444.03l17.075,44.584L938.261,496.2V447.824Z" transform="translate(-28.583 -22.827)"/><path class="b" d="M575.98,496.03l2.846,272.245,13.28-1.9L589.26,496.03Z" transform="translate(-29.612 -25.5)"/><path class="b" d="M1065.33,554.26h-1.366a300.171,300.171,0,0,1-10.937,50.076l-4.316-50.275-.18-2.144,15.956-1.84.531-.057Z" transform="translate(-156.875 -74.273)"/><path class="j" d="M893.109,471.053,754.141,473.9,710.98,459.67l115.728-6.64Z" transform="translate(-36.552 -23.29)"/><path class="l" d="M827.339,461.886a9.32,9.32,0,0,0-3.794,2.7,10.019,10.019,0,0,0-1.413,4.307L819.8,482.812a6.155,6.155,0,0,0,.18,3.861c.607,1.167,2.371,1.774,3.254.806-.114,2.722.123,5.625,1.707,7.845s4.9,3.386,7.143,1.84a4.629,4.629,0,0,0,6.972,1.082c-1.347.455-1.442,2.514-.484,3.557a6.2,6.2,0,0,0,3.87,1.546,94.657,94.657,0,0,0,49.232-6.194c1.47-.607-2.4-18.734-2.789-20.594-.949-4.373-1.423-9.713-5.113-12.654-8.822-7.039-24.492-8.424-35.24-7.589A60.71,60.71,0,0,0,827.339,461.886Z" transform="translate(-145.104 -69.445)"/><path class="g" d="M971.254,463.681c-34.311.654-69.333,1.214-102.077-9.059a69.25,69.25,0,0,1-.626,36.872l160.426,13.28c6.8.559,35,3.747,41.634,2.144s-55.635-22.112-53.121-28.458c6.915-17.483,30.079-27.727,13.394-28.382C1009.823,449.243,992.474,463.282,971.254,463.681Z" transform="translate(-147.622 -69.133)"/><path class="h" d="M972.254,465.681c-34.311.655-69.332,1.214-102.078-9.059a69.248,69.248,0,0,1-.626,36.872l160.425,13.28c6.8.56,35,3.794,41.634,2.144s5.075-9.78,7.589-16.126c6.915-17.483-30.63-40.059-47.315-40.714C1010.823,451.243,993.474,465.282,972.254,465.681Z" transform="translate(-147.674 -69.236)"/><path class="l" d="M916.806,468.886a9.288,9.288,0,0,1,3.794,2.7,10.159,10.159,0,0,1,1.423,4.307l2.333,13.916a6.221,6.221,0,0,1-.18,3.861c-.607,1.167-2.381,1.774-3.254.806.1,2.723-.123,5.625-1.708,7.845s-4.9,3.386-7.152,1.84a4.629,4.629,0,0,1-6.972,1.082c1.347.455,1.452,2.514.493,3.557a6.223,6.223,0,0,1-3.88,1.546,94.621,94.621,0,0,1-49.222-6.194c-1.47-.607,2.391-18.735,2.789-20.594.948-4.373,1.423-9.714,5.113-12.654,8.813-7.039,24.492-8.423,35.24-7.589A60.71,60.71,0,0,1,916.806,468.886Z" transform="translate(-146.779 -69.804)"/><path class="h" d="M680.688,433.249c-3.149,4.06-6.308,8.205-8.338,12.939-3.88,9.031-3.311,19.256-2.666,29.065.18,2.846.408,5.749,1.9,8.11a13.7,13.7,0,0,0,4.952,4.221c8.215,4.667,17.833,6.062,27.224,7.1q21.571,2.39,43.294,2.912c35.876.873,72.3-2.058,107.247,6.071-4.325-6.574-4.316-15.272-1.9-22.766s7.076-14.02,11.639-20.442c-15.993-5.065-33.144,2.846-49.9,2.058-17.2-.806-33.115-10.747-50.332-10.738-3.7,0-7.466.465-11.061-.427s-7.077-3.6-7.409-7.295c4.592,1.034,8.946-2.893,10.843-7.2s2.239-9.173,4.079-13.508c4.582-10.786,16.96-15.785,24.663-24.663,1.215-1.4,2.362-3.064,2.324-4.923a7.7,7.7,0,0,0-1.9-4.24c-6.4-8.537-16.05-13.28-24.066-19.92-2.789-2.315-8.414-11.042-11.544-11.848-5.805-1.489-10.728,6.9-14.5,10.985Q706.651,399.811,680.688,433.249Z" transform="translate(-137.375 -64.38)"/><path class="o" d="M882.39,434.81a31.411,31.411,0,0,1,6.346,6.289,10.831,10.831,0,0,1,1.982,8.48,12.673,12.673,0,0,1,7.9-13.119Z" transform="translate(-148.334 -68.35)"/><g class="k" transform="translate(728.826 109.023)"><path d="M937.491,172.1a82.387,82.387,0,0,0-3.851-8.68,23.248,23.248,0,0,0-2.77.711,80.189,80.189,0,0,1,4.392,8.376A15.9,15.9,0,0,1,937.491,172.1Z" transform="translate(-879.652 -163.42)"/><path d="M995.87,212c.256.209.5.446.75.664a1.357,1.357,0,0,0-.066-.18Q996.231,212.247,995.87,212Z" transform="translate(-882.994 -165.918)"/><path d="M902.287,216.086c.493-.389.948-.8,1.48-1.176l-.152-4.506-10.131-.1c-1.641,1.508-3.386,3.671-2.419,5.692Z" transform="translate(-877.592 -165.83)"/><path d="M1012.329,295.393c-1.8,3.358-4.4,6.507-7.958,7.864-2.742,1.043-5.758.948-8.689.816-10-.408-20.167-.854-29.615-4.164-4.42-1.556-8.651-3.728-13.28-4.686-5.417-1.12-11.022-.484-16.515.161l-24.208,2.846c-7.143.835-15.1,1.461-20.8-2.922-3.263-2.5-5.369-6.4-8.945-8.414-1.509-.854-3.3-1.4-4.278-2.846a7.1,7.1,0,0,1-.948-3.519c-.076-1-.124-1.992-.161-2.988a80.306,80.306,0,0,0,.161,8.68,7.1,7.1,0,0,0,.948,3.519c.948,1.432,2.77,1.982,4.278,2.846,3.576,2.011,5.691,5.91,8.945,8.414,5.692,4.382,13.66,3.794,20.8,2.922l24.208-2.846c5.492-.645,11.1-1.281,16.515-.161,4.592.948,8.822,3.13,13.28,4.686,9.486,3.311,19.617,3.794,29.615,4.164,2.931.123,5.948.228,8.689-.816,3.557-1.357,6.156-4.506,7.958-7.864,3.491-6.5,4.468-13.869,4.1-21.3A37.053,37.053,0,0,1,1012.329,295.393Z" transform="translate(-876.877 -169.287)"/></g><path class="g" d="M937.56,179l13.281,12.332S939.457,186.589,937.56,179Z" transform="translate(-151.17 -55.199)"/></g></svg>