<svg xmlns="http://www.w3.org/2000/svg" width="371.872" height="371.872" viewBox="0 0 371.872 371.872"><defs><style>.a{fill:#e55151;}.b{fill:#fff;}</style></defs><circle class="a" cx="185.936" cy="185.936" r="185.936"/><path class="b" d="M126.946,97.676l52.338-52.338a16.453,16.453,0,0,0,0-23.264L167.653,10.442a16.453,16.453,0,0,0-23.264,0L92.051,62.78,39.713,10.442a16.453,16.453,0,0,0-23.264,0L4.817,22.074a16.453,16.453,0,0,0,0,23.264L57.155,97.676,4.817,150.014a16.453,16.453,0,0,0,0,23.264L16.449,184.91a16.453,16.453,0,0,0,23.264,0l52.338-52.338,52.338,52.338a16.453,16.453,0,0,0,23.264,0l11.632-11.632a16.453,16.453,0,0,0,0-23.264Z" transform="translate(92.051 88.26)"/></svg>