<svg xmlns="http://www.w3.org/2000/svg" width="371.872" height="371.872" viewBox="0 0 371.872 371.872"><defs><style>.a{fill:#0b8fbf;}.b{fill:#fff;}</style></defs><circle class="a" cx="185.936" cy="185.936" r="185.936"/><path class="b" d="M87.35,70.086V95.215c9.631,2.177,18.191,5.756,27.158,8.229V78.278c-9.594-2.14-18.228-5.719-27.158-8.192Zm82.4-45.386c-12.656,5.867-28.228,11.771-43.172,11.771-19.741,0-36.088-12.841-60.958-12.841a71.743,71.743,0,0,0-25.092,4.428A20.667,20.667,0,1,0,9.418,37.615V180.083a8.835,8.835,0,0,0,8.856,8.856h5.9a8.835,8.835,0,0,0,8.856-8.856V145.25C43.476,140.785,56.5,137.1,75.247,137.1c19.778,0,36.088,12.841,60.958,12.841,17.785,0,31.992-6.015,45.2-15.092A11.772,11.772,0,0,0,186.5,125.1V35.4A11.792,11.792,0,0,0,169.746,24.7ZM60.192,120.122a116.248,116.248,0,0,0-27.158,6.125V100.233C42.7,96.8,50.561,94.7,60.192,93.812Zm108.632-49.63c-8.708,3.616-17.084,7.2-27.158,8.819v26.235a68.581,68.581,0,0,0,27.158-9.594v26.014c-9.262,5.941-17.9,9.114-27.158,10v-26.42c-9.963,1.365-17.675.553-27.158-2.066v24.87c-8.819-2.731-17.453-6.162-27.158-7.86V95.215c-7.269-1.624-15.055-2.509-27.158-1.4V67.983c-8.265,1.144-16.457,3.764-27.158,7.712V49.681c12.251-4.5,18.487-7.306,27.158-8.118v26.42c9.963-1.365,17.859-.48,27.158,2.1V45.216c8.745,2.731,17.417,6.162,27.158,7.86V78.315a70.293,70.293,0,0,0,27.158,1V52.78a130.557,130.557,0,0,0,27.158-8.3Z" transform="translate(90.571 91.468)"/></svg>